<mxfile host="app.diagrams.net" modified="2022-04-21T10:27:12.104Z" agent="5.0 (Windows NT 10.0; Win64; x64) AppleWebKit/537.36 (KHTML, like Gecko) Chrome/100.0.4896.127 Safari/537.36" etag="PqSkv12L-Kj508W4U12t" version="17.4.6" type="github">
  <diagram id="ifSPu3AfvnNZ_Hdb-L9t" name="Page-1">
    <mxGraphModel dx="1208" dy="765" grid="0" gridSize="10" guides="1" tooltips="1" connect="1" arrows="1" fold="1" page="1" pageScale="1" pageWidth="827" pageHeight="1169" math="0" shadow="0">
      <root>
        <mxCell id="0" />
        <mxCell id="1" parent="0" />
        <mxCell id="zVb_pj8RaRooyPpA-IDt-1" value="" style="rounded=1;whiteSpace=wrap;html=1;fontSize=14;fillColor=#f5f5f5;fontColor=#333333;strokeColor=#666666;" parent="1" vertex="1">
          <mxGeometry x="121" y="320" width="200.62" height="160" as="geometry" />
        </mxCell>
        <mxCell id="zVb_pj8RaRooyPpA-IDt-2" value="Add &amp;amp; Normalize" style="rounded=1;whiteSpace=wrap;html=1;fontSize=14;fillColor=#d0cee2;strokeColor=#56517e;" parent="1" vertex="1">
          <mxGeometry x="146.62" y="333" width="155" height="23" as="geometry" />
        </mxCell>
        <mxCell id="zVb_pj8RaRooyPpA-IDt-3" value="Feed Forward" style="rounded=1;whiteSpace=wrap;html=1;fontSize=14;fillColor=#dae8fc;strokeColor=#6c8ebf;" parent="1" vertex="1">
          <mxGeometry x="146.62" y="370" width="155" height="23" as="geometry" />
        </mxCell>
        <mxCell id="zVb_pj8RaRooyPpA-IDt-4" value="Add &amp;amp; Normalize" style="rounded=1;whiteSpace=wrap;html=1;fontSize=14;fillColor=#d0cee2;strokeColor=#56517e;" parent="1" vertex="1">
          <mxGeometry x="146.62" y="406" width="155" height="23" as="geometry" />
        </mxCell>
        <mxCell id="zVb_pj8RaRooyPpA-IDt-5" value="Multi-Head Attention" style="rounded=1;whiteSpace=wrap;html=1;fontSize=14;fillColor=#fff2cc;strokeColor=#d6b656;" parent="1" vertex="1">
          <mxGeometry x="146.62" y="443" width="155" height="23" as="geometry" />
        </mxCell>
        <mxCell id="zVb_pj8RaRooyPpA-IDt-6" value="" style="rounded=1;whiteSpace=wrap;html=1;fontSize=14;fillColor=#f5f5f5;fontColor=#333333;strokeColor=#666666;" parent="1" vertex="1">
          <mxGeometry x="351" y="236" width="250" height="250" as="geometry" />
        </mxCell>
        <mxCell id="zVb_pj8RaRooyPpA-IDt-7" value="Add &amp;amp; Normalize" style="rounded=1;whiteSpace=wrap;html=1;fontSize=14;fillColor=#d0cee2;strokeColor=#56517e;" parent="1" vertex="1">
          <mxGeometry x="388" y="245" width="190" height="23" as="geometry" />
        </mxCell>
        <mxCell id="zVb_pj8RaRooyPpA-IDt-8" value="Feed Forward" style="rounded=1;whiteSpace=wrap;html=1;fontSize=14;fillColor=#dae8fc;strokeColor=#6c8ebf;" parent="1" vertex="1">
          <mxGeometry x="388" y="284.5" width="190" height="23" as="geometry" />
        </mxCell>
        <mxCell id="zVb_pj8RaRooyPpA-IDt-9" value="Multi-Head Attention" style="rounded=1;whiteSpace=wrap;html=1;fontSize=14;fillColor=#fff2cc;strokeColor=#d6b656;" parent="1" vertex="1">
          <mxGeometry x="388" y="365" width="190" height="23" as="geometry" />
        </mxCell>
        <mxCell id="zVb_pj8RaRooyPpA-IDt-10" value="Masked Multi-Head Attention" style="rounded=1;whiteSpace=wrap;html=1;fontSize=14;fillColor=#fff2cc;strokeColor=#d6b656;" parent="1" vertex="1">
          <mxGeometry x="390.25" y="446" width="187.5" height="23" as="geometry" />
        </mxCell>
        <mxCell id="zVb_pj8RaRooyPpA-IDt-11" value="" style="endArrow=classic;html=1;rounded=1;fontSize=14;entryX=0.5;entryY=1;entryDx=0;entryDy=0;" parent="1" target="zVb_pj8RaRooyPpA-IDt-5" edge="1">
          <mxGeometry width="50" height="50" relative="1" as="geometry">
            <mxPoint x="224.6199999999999" y="493.0000000000001" as="sourcePoint" />
            <mxPoint x="251.62" y="533" as="targetPoint" />
          </mxGeometry>
        </mxCell>
        <mxCell id="zVb_pj8RaRooyPpA-IDt-12" value="" style="endArrow=classic;html=1;rounded=1;fontSize=14;entryX=0.5;entryY=1;entryDx=0;entryDy=0;exitX=0.5;exitY=0;exitDx=0;exitDy=0;" parent="1" source="zVb_pj8RaRooyPpA-IDt-5" target="zVb_pj8RaRooyPpA-IDt-4" edge="1">
          <mxGeometry width="50" height="50" relative="1" as="geometry">
            <mxPoint x="234.62" y="503" as="sourcePoint" />
            <mxPoint x="234.12" y="474" as="targetPoint" />
          </mxGeometry>
        </mxCell>
        <mxCell id="zVb_pj8RaRooyPpA-IDt-13" value="" style="endArrow=classic;html=1;rounded=1;fontSize=14;entryX=0.5;entryY=1;entryDx=0;entryDy=0;exitX=0.5;exitY=0;exitDx=0;exitDy=0;" parent="1" source="zVb_pj8RaRooyPpA-IDt-4" target="zVb_pj8RaRooyPpA-IDt-3" edge="1">
          <mxGeometry width="50" height="50" relative="1" as="geometry">
            <mxPoint x="234.12" y="453" as="sourcePoint" />
            <mxPoint x="234.12" y="438" as="targetPoint" />
          </mxGeometry>
        </mxCell>
        <mxCell id="zVb_pj8RaRooyPpA-IDt-14" value="" style="endArrow=classic;html=1;rounded=1;fontSize=14;exitX=0.5;exitY=0;exitDx=0;exitDy=0;entryX=0.5;entryY=1;entryDx=0;entryDy=0;" parent="1" source="zVb_pj8RaRooyPpA-IDt-3" target="zVb_pj8RaRooyPpA-IDt-2" edge="1">
          <mxGeometry width="50" height="50" relative="1" as="geometry">
            <mxPoint x="244.12" y="463" as="sourcePoint" />
            <mxPoint x="244.12" y="448" as="targetPoint" />
          </mxGeometry>
        </mxCell>
        <mxCell id="zVb_pj8RaRooyPpA-IDt-15" value="" style="endArrow=classic;html=1;rounded=1;fontSize=14;entryX=0;entryY=0.5;entryDx=0;entryDy=0;edgeStyle=elbowEdgeStyle;dashed=1;" parent="1" target="zVb_pj8RaRooyPpA-IDt-4" edge="1">
          <mxGeometry width="50" height="50" relative="1" as="geometry">
            <mxPoint x="221.6199999999999" y="473" as="sourcePoint" />
            <mxPoint x="81.62" y="423" as="targetPoint" />
            <Array as="points">
              <mxPoint x="131.62" y="453" />
              <mxPoint x="141.62" y="453" />
              <mxPoint x="131.62" y="453" />
              <mxPoint x="131.62" y="453" />
            </Array>
          </mxGeometry>
        </mxCell>
        <mxCell id="zVb_pj8RaRooyPpA-IDt-16" value="" style="endArrow=classic;html=1;rounded=1;fontSize=14;edgeStyle=elbowEdgeStyle;dashed=1;exitX=0.502;exitY=0.519;exitDx=0;exitDy=0;exitPerimeter=0;entryX=0;entryY=0.5;entryDx=0;entryDy=0;" parent="1" target="zVb_pj8RaRooyPpA-IDt-2" edge="1">
          <mxGeometry width="50" height="50" relative="1" as="geometry">
            <mxPoint x="221.7112400000001" y="400.03999999999985" as="sourcePoint" />
            <mxPoint x="141.62" y="343" as="targetPoint" />
            <Array as="points">
              <mxPoint x="131.62" y="373" />
              <mxPoint x="151.62" y="460" />
              <mxPoint x="141.62" y="460" />
              <mxPoint x="141.62" y="460" />
            </Array>
          </mxGeometry>
        </mxCell>
        <mxCell id="zVb_pj8RaRooyPpA-IDt-18" value="" style="endArrow=classic;html=1;rounded=1;fontSize=14;entryX=0.5;entryY=1;entryDx=0;entryDy=0;" parent="1" source="zVb_pj8RaRooyPpA-IDt-25" target="zVb_pj8RaRooyPpA-IDt-9" edge="1">
          <mxGeometry width="50" height="50" relative="1" as="geometry">
            <mxPoint x="483.0000000000002" y="404.9999999999999" as="sourcePoint" />
            <mxPoint x="480.25" y="389.851" as="targetPoint" />
          </mxGeometry>
        </mxCell>
        <mxCell id="zVb_pj8RaRooyPpA-IDt-19" style="edgeStyle=elbowEdgeStyle;rounded=1;orthogonalLoop=1;jettySize=auto;html=1;entryX=0.5;entryY=0;entryDx=0;entryDy=0;dashed=1;fontSize=14;endArrow=classic;endFill=1;" parent="1" edge="1">
          <mxGeometry relative="1" as="geometry">
            <mxPoint x="475.57142857142867" y="405" as="sourcePoint" />
            <mxPoint x="475.7500000000002" y="405" as="targetPoint" />
          </mxGeometry>
        </mxCell>
        <mxCell id="zVb_pj8RaRooyPpA-IDt-21" value="" style="endArrow=classic;html=1;rounded=1;fontSize=14;entryX=0.5;entryY=1;entryDx=0;entryDy=0;" parent="1" target="zVb_pj8RaRooyPpA-IDt-10" edge="1">
          <mxGeometry width="50" height="50" relative="1" as="geometry">
            <mxPoint x="484" y="496" as="sourcePoint" />
            <mxPoint x="484.0000000000002" y="464" as="targetPoint" />
          </mxGeometry>
        </mxCell>
        <mxCell id="zVb_pj8RaRooyPpA-IDt-22" value="" style="endArrow=classic;html=1;rounded=1;fontSize=14;entryX=0;entryY=0.5;entryDx=0;entryDy=0;edgeStyle=elbowEdgeStyle;dashed=1;" parent="1" target="zVb_pj8RaRooyPpA-IDt-25" edge="1">
          <mxGeometry width="50" height="50" relative="1" as="geometry">
            <mxPoint x="481" y="478" as="sourcePoint" />
            <mxPoint x="380.75" y="416.4999999999999" as="targetPoint" />
            <Array as="points">
              <mxPoint x="371" y="448" />
              <mxPoint x="361" y="448" />
              <mxPoint x="111" y="451" />
              <mxPoint x="101" y="451" />
              <mxPoint x="101" y="451" />
            </Array>
          </mxGeometry>
        </mxCell>
        <mxCell id="zVb_pj8RaRooyPpA-IDt-23" value="" style="endArrow=classic;html=1;rounded=1;fontSize=14;edgeStyle=elbowEdgeStyle;dashed=1;entryX=0;entryY=0.5;entryDx=0;entryDy=0;" parent="1" target="zVb_pj8RaRooyPpA-IDt-24" edge="1">
          <mxGeometry width="50" height="50" relative="1" as="geometry">
            <mxPoint x="481" y="398" as="sourcePoint" />
            <mxPoint x="381" y="341" as="targetPoint" />
            <Array as="points">
              <mxPoint x="371" y="368" />
              <mxPoint x="361" y="459.5" />
              <mxPoint x="361" y="459.5" />
              <mxPoint x="111" y="462.5" />
              <mxPoint x="101" y="462.5" />
              <mxPoint x="101" y="462.5" />
            </Array>
          </mxGeometry>
        </mxCell>
        <mxCell id="zVb_pj8RaRooyPpA-IDt-24" value="Add &amp;amp; Normalize" style="rounded=1;whiteSpace=wrap;html=1;fontSize=14;fillColor=#d0cee2;strokeColor=#56517e;" parent="1" vertex="1">
          <mxGeometry x="388" y="326" width="190" height="23" as="geometry" />
        </mxCell>
        <mxCell id="zVb_pj8RaRooyPpA-IDt-25" value="Add &amp;amp; Normalize" style="rounded=1;whiteSpace=wrap;html=1;fontSize=14;fillColor=#d0cee2;strokeColor=#56517e;" parent="1" vertex="1">
          <mxGeometry x="389" y="408" width="190" height="23" as="geometry" />
        </mxCell>
        <mxCell id="zVb_pj8RaRooyPpA-IDt-26" style="rounded=1;orthogonalLoop=1;jettySize=auto;html=1;exitX=0.5;exitY=0;exitDx=0;exitDy=0;fontSize=14;endArrow=classic;endFill=1;entryX=0.5;entryY=1;entryDx=0;entryDy=0;" parent="1" source="zVb_pj8RaRooyPpA-IDt-24" target="zVb_pj8RaRooyPpA-IDt-8" edge="1">
          <mxGeometry relative="1" as="geometry">
            <mxPoint x="481" y="298" as="targetPoint" />
          </mxGeometry>
        </mxCell>
        <mxCell id="zVb_pj8RaRooyPpA-IDt-27" value="" style="endArrow=classic;html=1;rounded=1;fontSize=14;edgeStyle=elbowEdgeStyle;dashed=1;entryX=0;entryY=0.5;entryDx=0;entryDy=0;" parent="1" target="zVb_pj8RaRooyPpA-IDt-7" edge="1">
          <mxGeometry width="50" height="50" relative="1" as="geometry">
            <mxPoint x="481" y="318" as="sourcePoint" />
            <mxPoint x="398" y="344.5" as="targetPoint" />
            <Array as="points">
              <mxPoint x="371" y="288" />
              <mxPoint x="371" y="469.5" />
              <mxPoint x="371" y="469.5" />
              <mxPoint x="121" y="472.5" />
              <mxPoint x="111" y="472.5" />
              <mxPoint x="111" y="472.5" />
            </Array>
          </mxGeometry>
        </mxCell>
        <mxCell id="zVb_pj8RaRooyPpA-IDt-28" value="" style="endArrow=classic;html=1;rounded=1;fontSize=14;edgeStyle=orthogonalEdgeStyle;dashed=1;entryX=0;entryY=0.5;entryDx=0;entryDy=0;exitX=0.5;exitY=0;exitDx=0;exitDy=0;" parent="1" source="zVb_pj8RaRooyPpA-IDt-1" target="zVb_pj8RaRooyPpA-IDt-9" edge="1">
          <mxGeometry width="50" height="50" relative="1" as="geometry">
            <mxPoint x="500" y="416" as="sourcePoint" />
            <mxPoint x="407" y="355.5" as="targetPoint" />
            <Array as="points">
              <mxPoint x="221" y="316" />
              <mxPoint x="220" y="316" />
              <mxPoint x="220" y="298" />
              <mxPoint x="340" y="298" />
              <mxPoint x="340" y="377" />
            </Array>
          </mxGeometry>
        </mxCell>
        <mxCell id="zVb_pj8RaRooyPpA-IDt-29" value="Softmax" style="rounded=1;whiteSpace=wrap;html=1;fontSize=14;fillColor=#f8cecc;strokeColor=#b85450;" parent="1" vertex="1">
          <mxGeometry x="390.25" y="155" width="190" height="23" as="geometry" />
        </mxCell>
        <mxCell id="zVb_pj8RaRooyPpA-IDt-30" value="Linear" style="rounded=1;whiteSpace=wrap;html=1;fontSize=14;fillColor=#b0e3e6;strokeColor=#0e8088;" parent="1" vertex="1">
          <mxGeometry x="391.25" y="195" width="190" height="23" as="geometry" />
        </mxCell>
        <mxCell id="zVb_pj8RaRooyPpA-IDt-31" value="" style="endArrow=classic;html=1;rounded=1;fontSize=14;" parent="1" target="zVb_pj8RaRooyPpA-IDt-30" edge="1">
          <mxGeometry width="50" height="50" relative="1" as="geometry">
            <mxPoint x="486" y="235" as="sourcePoint" />
            <mxPoint x="494.0000000000002" y="474" as="targetPoint" />
          </mxGeometry>
        </mxCell>
        <mxCell id="zVb_pj8RaRooyPpA-IDt-32" value="" style="endArrow=classic;html=1;rounded=1;fontSize=14;entryX=0.5;entryY=1;entryDx=0;entryDy=0;" parent="1" target="zVb_pj8RaRooyPpA-IDt-29" edge="1">
          <mxGeometry width="50" height="50" relative="1" as="geometry">
            <mxPoint x="485" y="195" as="sourcePoint" />
            <mxPoint x="496.14912280701765" y="228" as="targetPoint" />
          </mxGeometry>
        </mxCell>
        <mxCell id="zVb_pj8RaRooyPpA-IDt-33" value="" style="shape=table;html=1;whiteSpace=wrap;startSize=0;container=1;collapsible=0;childLayout=tableLayout;fontSize=14;fillColor=#d5e8d4;strokeColor=#82b366;" parent="1" vertex="1">
          <mxGeometry x="179.12" y="505" width="90.88" height="20" as="geometry" />
        </mxCell>
        <mxCell id="zVb_pj8RaRooyPpA-IDt-34" value="" style="shape=tableRow;horizontal=0;startSize=0;swimlaneHead=0;swimlaneBody=0;top=0;left=0;bottom=0;right=0;collapsible=0;dropTarget=0;fillColor=none;points=[[0,0.5],[1,0.5]];portConstraint=eastwest;fontSize=14;strokeColor=#D5E8D4;" parent="zVb_pj8RaRooyPpA-IDt-33" vertex="1">
          <mxGeometry width="90.88" height="20" as="geometry" />
        </mxCell>
        <mxCell id="zVb_pj8RaRooyPpA-IDt-35" value="" style="shape=partialRectangle;html=1;whiteSpace=wrap;connectable=0;fillColor=none;top=0;left=0;bottom=0;right=0;overflow=hidden;fontSize=14;strokeColor=#D5E8D4;" parent="zVb_pj8RaRooyPpA-IDt-34" vertex="1">
          <mxGeometry width="23" height="20" as="geometry">
            <mxRectangle width="23" height="20" as="alternateBounds" />
          </mxGeometry>
        </mxCell>
        <mxCell id="zVb_pj8RaRooyPpA-IDt-36" value="" style="shape=partialRectangle;html=1;whiteSpace=wrap;connectable=0;fillColor=none;top=0;left=0;bottom=0;right=0;overflow=hidden;fontSize=14;strokeColor=#D5E8D4;" parent="zVb_pj8RaRooyPpA-IDt-34" vertex="1">
          <mxGeometry x="23" width="22" height="20" as="geometry">
            <mxRectangle width="22" height="20" as="alternateBounds" />
          </mxGeometry>
        </mxCell>
        <mxCell id="zVb_pj8RaRooyPpA-IDt-37" value="" style="shape=partialRectangle;html=1;whiteSpace=wrap;connectable=0;fillColor=#d5e8d4;top=0;left=0;bottom=0;right=0;overflow=hidden;fontSize=14;strokeColor=#82b366;" parent="zVb_pj8RaRooyPpA-IDt-34" vertex="1">
          <mxGeometry x="45" width="21" height="20" as="geometry">
            <mxRectangle width="21" height="20" as="alternateBounds" />
          </mxGeometry>
        </mxCell>
        <mxCell id="zVb_pj8RaRooyPpA-IDt-38" style="shape=partialRectangle;html=1;whiteSpace=wrap;connectable=0;fillColor=none;top=0;left=0;bottom=0;right=0;overflow=hidden;fontSize=14;strokeColor=#D5E8D4;" parent="zVb_pj8RaRooyPpA-IDt-34" vertex="1">
          <mxGeometry x="66" width="25" height="20" as="geometry">
            <mxRectangle width="25" height="20" as="alternateBounds" />
          </mxGeometry>
        </mxCell>
        <mxCell id="zVb_pj8RaRooyPpA-IDt-39" value="" style="shape=table;html=1;whiteSpace=wrap;startSize=0;container=1;collapsible=0;childLayout=tableLayout;fontSize=14;fillColor=#d5e8d4;strokeColor=#82b366;" parent="1" vertex="1">
          <mxGeometry x="439" y="510" width="90" height="20" as="geometry" />
        </mxCell>
        <mxCell id="zVb_pj8RaRooyPpA-IDt-40" value="" style="shape=tableRow;horizontal=0;startSize=0;swimlaneHead=0;swimlaneBody=0;top=0;left=0;bottom=0;right=0;collapsible=0;dropTarget=0;fillColor=none;points=[[0,0.5],[1,0.5]];portConstraint=eastwest;fontSize=14;strokeColor=#D5E8D4;" parent="zVb_pj8RaRooyPpA-IDt-39" vertex="1">
          <mxGeometry width="90" height="20" as="geometry" />
        </mxCell>
        <mxCell id="zVb_pj8RaRooyPpA-IDt-41" value="" style="shape=partialRectangle;html=1;whiteSpace=wrap;connectable=0;fillColor=none;top=0;left=0;bottom=0;right=0;overflow=hidden;fontSize=14;strokeColor=#D5E8D4;" parent="zVb_pj8RaRooyPpA-IDt-40" vertex="1">
          <mxGeometry width="23" height="20" as="geometry">
            <mxRectangle width="23" height="20" as="alternateBounds" />
          </mxGeometry>
        </mxCell>
        <mxCell id="zVb_pj8RaRooyPpA-IDt-42" value="" style="shape=partialRectangle;html=1;whiteSpace=wrap;connectable=0;fillColor=none;top=0;left=0;bottom=0;right=0;overflow=hidden;fontSize=14;strokeColor=#D5E8D4;" parent="zVb_pj8RaRooyPpA-IDt-40" vertex="1">
          <mxGeometry x="23" width="22" height="20" as="geometry">
            <mxRectangle width="22" height="20" as="alternateBounds" />
          </mxGeometry>
        </mxCell>
        <mxCell id="zVb_pj8RaRooyPpA-IDt-43" value="" style="shape=partialRectangle;html=1;whiteSpace=wrap;connectable=0;fillColor=none;top=0;left=0;bottom=0;right=0;overflow=hidden;fontSize=14;strokeColor=#D5E8D4;" parent="zVb_pj8RaRooyPpA-IDt-40" vertex="1">
          <mxGeometry x="45" width="23" height="20" as="geometry">
            <mxRectangle width="23" height="20" as="alternateBounds" />
          </mxGeometry>
        </mxCell>
        <mxCell id="zVb_pj8RaRooyPpA-IDt-44" style="shape=partialRectangle;html=1;whiteSpace=wrap;connectable=0;fillColor=none;top=0;left=0;bottom=0;right=0;overflow=hidden;fontSize=14;strokeColor=#D5E8D4;" parent="zVb_pj8RaRooyPpA-IDt-40" vertex="1">
          <mxGeometry x="68" width="22" height="20" as="geometry">
            <mxRectangle width="22" height="20" as="alternateBounds" />
          </mxGeometry>
        </mxCell>
        <mxCell id="zVb_pj8RaRooyPpA-IDt-45" value="" style="shape=orEllipse;perimeter=ellipsePerimeter;whiteSpace=wrap;html=1;backgroundOutline=1;fontSize=14;" parent="1" vertex="1">
          <mxGeometry x="218.62" y="489" width="11" height="11" as="geometry" />
        </mxCell>
        <mxCell id="zVb_pj8RaRooyPpA-IDt-46" value="" style="shape=orEllipse;perimeter=ellipsePerimeter;whiteSpace=wrap;html=1;backgroundOutline=1;fontSize=14;" parent="1" vertex="1">
          <mxGeometry x="478.75" y="494" width="11" height="11" as="geometry" />
        </mxCell>
        <mxCell id="zVb_pj8RaRooyPpA-IDt-47" value="Inputs" style="text;html=1;align=center;verticalAlign=middle;resizable=0;points=[];autosize=1;strokeColor=none;fillColor=none;fontSize=14;" parent="1" vertex="1">
          <mxGeometry x="200" y="530" width="50" height="20" as="geometry" />
        </mxCell>
        <mxCell id="zVb_pj8RaRooyPpA-IDt-48" value="Outputs" style="text;html=1;align=center;verticalAlign=middle;resizable=0;points=[];autosize=1;strokeColor=none;fillColor=none;fontSize=14;" parent="1" vertex="1">
          <mxGeometry x="455.25" y="536" width="60" height="20" as="geometry" />
        </mxCell>
        <mxCell id="zVb_pj8RaRooyPpA-IDt-49" value="&lt;span style=&quot;font-size: 10px&quot;&gt;位置编码&lt;/span&gt;" style="text;html=1;align=center;verticalAlign=middle;resizable=0;points=[];autosize=1;strokeColor=none;fillColor=none;fontSize=14;" parent="1" vertex="1">
          <mxGeometry x="241" y="483.5" width="58" height="22" as="geometry" />
        </mxCell>
        <mxCell id="zVb_pj8RaRooyPpA-IDt-50" value="&lt;span style=&quot;font-size: 10px&quot;&gt;位置编码&lt;/span&gt;" style="text;html=1;align=center;verticalAlign=middle;resizable=0;points=[];autosize=1;strokeColor=none;fillColor=none;fontSize=14;" parent="1" vertex="1">
          <mxGeometry x="508" y="488.5" width="58" height="22" as="geometry" />
        </mxCell>
        <mxCell id="faAQEIFpF8tsHkvl49LA-2" value="" style="endArrow=none;html=1;rounded=0;exitX=0.5;exitY=0;exitDx=0;exitDy=0;entryX=0.5;entryY=1;entryDx=0;entryDy=0;" parent="1" source="zVb_pj8RaRooyPpA-IDt-10" target="zVb_pj8RaRooyPpA-IDt-25" edge="1">
          <mxGeometry width="50" height="50" relative="1" as="geometry">
            <mxPoint x="330" y="365" as="sourcePoint" />
            <mxPoint x="380" y="315" as="targetPoint" />
          </mxGeometry>
        </mxCell>
        <mxCell id="faAQEIFpF8tsHkvl49LA-3" value="" style="endArrow=none;html=1;rounded=0;exitX=0.5;exitY=0;exitDx=0;exitDy=0;entryX=0.5;entryY=1;entryDx=0;entryDy=0;" parent="1" source="zVb_pj8RaRooyPpA-IDt-9" target="zVb_pj8RaRooyPpA-IDt-24" edge="1">
          <mxGeometry width="50" height="50" relative="1" as="geometry">
            <mxPoint x="150" y="295" as="sourcePoint" />
            <mxPoint x="200" y="245" as="targetPoint" />
          </mxGeometry>
        </mxCell>
        <mxCell id="faAQEIFpF8tsHkvl49LA-4" value="" style="endArrow=none;html=1;rounded=0;exitX=0.5;exitY=0;exitDx=0;exitDy=0;" parent="1" source="zVb_pj8RaRooyPpA-IDt-8" target="zVb_pj8RaRooyPpA-IDt-7" edge="1">
          <mxGeometry width="50" height="50" relative="1" as="geometry">
            <mxPoint x="710" y="295" as="sourcePoint" />
            <mxPoint x="760" y="245" as="targetPoint" />
          </mxGeometry>
        </mxCell>
        <mxCell id="faAQEIFpF8tsHkvl49LA-5" value="N&lt;sub&gt;x&lt;/sub&gt;" style="text;html=1;align=center;verticalAlign=middle;resizable=0;points=[];autosize=1;strokeColor=none;fillColor=none;" parent="1" vertex="1">
          <mxGeometry x="80" y="390" width="30" height="20" as="geometry" />
        </mxCell>
        <mxCell id="faAQEIFpF8tsHkvl49LA-6" value="N&lt;sub&gt;x&lt;/sub&gt;" style="text;html=1;align=center;verticalAlign=middle;resizable=0;points=[];autosize=1;strokeColor=none;fillColor=none;" parent="1" vertex="1">
          <mxGeometry x="601" y="345" width="30" height="20" as="geometry" />
        </mxCell>
        <mxCell id="aSz6t-BOBZ9dtZ9WWLlS-1" value="" style="endArrow=classic;html=1;rounded=0;exitX=0.5;exitY=0;exitDx=0;exitDy=0;" parent="1" source="zVb_pj8RaRooyPpA-IDt-29" edge="1">
          <mxGeometry width="50" height="50" relative="1" as="geometry">
            <mxPoint x="387" y="423" as="sourcePoint" />
            <mxPoint x="485" y="121" as="targetPoint" />
          </mxGeometry>
        </mxCell>
        <mxCell id="aSz6t-BOBZ9dtZ9WWLlS-3" value="&lt;font style=&quot;font-size: 18px&quot;&gt;Encoder&lt;/font&gt;" style="text;html=1;strokeColor=none;fillColor=none;align=center;verticalAlign=middle;whiteSpace=wrap;rounded=0;" parent="1" vertex="1">
          <mxGeometry x="200" y="570" width="60" height="30" as="geometry" />
        </mxCell>
        <mxCell id="aSz6t-BOBZ9dtZ9WWLlS-4" value="&lt;span style=&quot;font-size: 18px&quot;&gt;Decoder&lt;/span&gt;" style="text;html=1;strokeColor=none;fillColor=none;align=center;verticalAlign=middle;whiteSpace=wrap;rounded=0;" parent="1" vertex="1">
          <mxGeometry x="456.25" y="572" width="60" height="30" as="geometry" />
        </mxCell>
      </root>
    </mxGraphModel>
  </diagram>
</mxfile>
